<?xml version="1.0" encoding="UTF-8" standalone="no"?>
<svg
   version="1.1"
   id="Layer_1"
   x="0px"
   y="0px"
   width="100%"
   viewBox="0 0 1600 900"
   enable-background="new 0 0 1600 900"
   xml:space="preserve"
   sodipodi:docname="menu_header_adobe_express.svg"
   inkscape:version="1.2.2 (732a01da63, 2022-12-09)"
   xmlns:inkscape="http://www.inkscape.org/namespaces/inkscape"
   xmlns:sodipodi="http://sodipodi.sourceforge.net/DTD/sodipodi-0.dtd"
   xmlns="http://www.w3.org/2000/svg"
   xmlns:svg="http://www.w3.org/2000/svg"><defs
   id="defs267" /><sodipodi:namedview
   id="namedview265"
   pagecolor="#505050"
   bordercolor="#ffffff"
   borderopacity="1"
   inkscape:showpageshadow="0"
   inkscape:pageopacity="0"
   inkscape:pagecheckerboard="1"
   inkscape:deskcolor="#505050"
   showgrid="false"
   inkscape:zoom="0.88444444"
   inkscape:cx="651.25628"
   inkscape:cy="450.56533"
   inkscape:window-width="1920"
   inkscape:window-height="991"
   inkscape:window-x="-9"
   inkscape:window-y="-9"
   inkscape:window-maximized="1"
   inkscape:current-layer="Layer_1" />

<path
   fill="#FAC500"
   opacity="1.000000"
   stroke="none"
   d=" M1369.404785,480.601257   C1379.048218,489.592499 1387.591431,494.780640 1396.682739,496.870270   C1394.144897,517.551086 1400.063354,535.362549 1417.211670,548.444153   C1426.525879,555.549561 1437.454956,559.338440 1448.858032,558.717285   C1474.633179,557.313354 1493.980103,542.048767 1499.359131,515.167786   C1502.213379,500.903412 1498.339966,487.522247 1489.838745,475.566437   C1481.495972,463.833466 1470.554443,456.156921 1456.266235,454.112610   C1471.198486,435.384521 1479.500610,414.408752 1483.583618,391.574371   C1485.013306,383.580048 1486.886597,375.631165 1487.736816,367.574890   C1489.084106,354.807129 1483.902100,343.131317 1480.381592,331.260193   C1476.531616,318.277649 1478.623047,308.059723 1487.938721,302.216339   C1497.418823,296.269989 1508.113403,293.262146 1518.877808,297.526154   C1535.657593,304.172882 1548.107178,315.525513 1552.770264,333.814758   C1553.836670,337.997650 1555.264526,342.121674 1555.931885,346.366180   C1557.364990,355.481201 1553.286377,363.389923 1549.068115,370.856079   C1545.688110,376.838837 1541.345947,382.441498 1536.648315,387.483826   C1525.481445,399.469849 1519.295166,413.121429 1517.438965,429.638885   C1513.922485,460.931610 1516.442139,492.246429 1515.519409,523.532532   C1514.969849,542.167725 1515.901123,560.847839 1515.305542,579.480164   C1514.731812,597.428345 1514.234131,615.531860 1511.387939,633.194092   C1509.813232,642.966553 1504.295776,652.450867 1499.105225,661.205078   C1492.710449,671.990356 1485.374756,682.346008 1477.429321,692.055603   C1463.160522,709.492676 1445.601196,723.233215 1425.332886,733.048218   C1411.645996,739.676147 1397.504272,745.449524 1383.273560,750.831970   C1376.994141,753.206970 1370.043091,754.256958 1363.302490,754.869446   C1348.735352,756.193298 1334.114502,756.986572 1319.501953,757.730591   C1307.038696,758.365234 1294.540771,759.241638 1282.085815,758.923950   C1258.142456,758.313171 1234.219116,756.923706 1210.286621,755.877563   C1203.794922,755.593811 1197.296387,755.451965 1190.807129,755.125549   C1166.854248,753.921021 1142.877563,753.033447 1118.960083,751.324341   C1096.390137,749.711609 1073.890015,747.139893 1051.346313,745.134888   C1037.766968,743.927185 1024.123657,743.354492 1010.578796,741.862671   C985.942139,739.149109 961.222656,736.776428 936.793091,732.722473   C916.545776,729.362610 896.584412,724.108215 876.663940,719.035461   C868.882935,717.054077 861.275574,713.835571 854.091125,710.190979   C841.939575,704.026672 840.882874,689.300842 851.111267,680.298340   C859.536560,672.882812 869.743408,669.431702 880.167480,666.864380   C893.339478,663.620239 906.684326,660.747681 920.121887,659.004761   C933.611450,657.255127 947.297974,656.907837 960.913330,656.268982   C992.023010,654.809448 1023.167053,653.957031 1054.248413,652.060242   C1074.834961,650.803894 1095.389282,648.580322 1115.860718,646.013794   C1131.995483,643.990906 1148.409790,642.240662 1163.912109,637.687073   C1179.024292,633.248108 1193.749023,626.498596 1207.534180,618.781433   C1225.162964,608.912476 1241.835449,597.286865 1258.581299,585.919250   C1263.556641,582.541870 1267.533813,577.616516 1271.683960,573.137024   C1273.495483,571.181763 1274.734985,570.671570 1277.094604,572.224304   C1306.660278,591.680603 1345.662720,576.699585 1356.353882,545.119751   C1364.906372,519.857239 1354.387573,493.084961 1331.804443,480.528870   C1321.230225,474.649658 1310.057739,472.697418 1298.142090,474.307495   C1292.164795,475.115143 1292.586670,474.698669 1291.457031,468.910065   C1289.722900,460.023346 1287.407104,451.184601 1284.516357,442.602234   C1277.634399,422.169769 1263.243774,406.471558 1250.481079,389.733521   C1244.758545,382.228516 1239.810181,374.131470 1234.548340,366.277710   C1230.677246,360.499847 1226.579956,354.848022 1223.089355,348.845764   C1215.496216,335.788086 1212.430420,321.925659 1220.791992,308.309784   C1226.381836,299.207489 1234.796753,292.533722 1246.187134,291.869537   C1254.740967,291.370758 1263.474854,290.771881 1271.897949,291.915771   C1287.267578,294.003113 1293.613647,306.990845 1292.071777,321.790741   C1291.048462,331.614960 1288.955200,341.380829 1286.624268,350.999115   C1284.717896,358.865662 1285.990601,366.290588 1289.963013,372.610413   C1300.881836,389.981079 1311.932495,407.341370 1324.136108,423.812897   C1338.469727,443.158905 1354.072266,461.564758 1369.404785,480.601257  M1393.848267,658.330261   C1399.899048,657.669006 1406.133301,657.712769 1411.960938,656.194702   C1422.904907,653.343994 1432.755127,638.064026 1431.086792,627.155090   C1430.802979,625.299683 1428.596558,623.738342 1427.278320,622.041260   C1425.704346,623.285034 1423.730713,624.261414 1422.669312,625.848145   C1421.619141,627.417969 1421.563721,629.628174 1420.943237,631.515137   C1418.924072,637.655090 1417.369263,644.525574 1410.150757,646.509583   C1395.863892,650.436218 1382.174805,649.809143 1370.912476,638.557983   C1368.496826,636.144653 1366.885376,632.944458 1364.682251,630.290588   C1363.865967,629.307373 1362.293701,628.164795 1361.283203,628.340759   C1360.170044,628.534668 1358.671875,630.038025 1358.448975,631.185913   C1357.677734,635.159241 1357.987549,638.846497 1360.962524,642.316101   C1369.435669,652.197998 1379.999390,657.540222 1393.848267,658.330261  z"
   id="path232" />
<path
   fill="#FA9600"
   opacity="1.000000"
   stroke="none"
   d=" M396.051025,303.006592   C397.373413,287.447052 398.382507,272.327881 400.148682,257.297668   C400.733459,252.321243 402.510620,247.092331 405.180969,242.893646   C406.918213,240.162125 411.293335,237.658463 414.411163,237.745911   C416.624451,237.807968 420.264954,242.200714 420.556641,244.948410   C421.352722,252.447525 421.535187,260.213043 420.503448,267.671417   C414.919495,308.037476 412.322815,348.479553 415.636597,389.188568   C416.257690,396.818817 416.784546,404.470917 416.933594,412.121124   C417.064972,418.867126 412.910065,423.321259 406.605743,423.995117   C399.856293,424.716583 396.685760,422.338867 394.874847,414.742920   C394.039215,411.237976 393.716003,407.610870 393.251923,404.627167   C386.996552,409.399353 381.072052,414.771454 374.356506,418.836945   C364.949554,424.531738 354.535278,427.566528 343.335968,425.686859   C329.742645,423.405396 320.604736,415.366425 315.018250,402.995087   C307.296387,385.894897 304.106201,367.697937 303.248535,349.195648   C301.920532,320.544983 302.631073,291.903717 307.057312,263.484344   C307.793335,258.758514 309.240997,254.114639 310.706177,249.543915   C311.400146,247.379089 312.733917,245.347046 314.091339,243.483154   C316.476257,240.208420 320.154785,238.417770 323.667572,240.203384   C326.027710,241.403061 328.564606,244.757172 328.733063,247.299088   C329.247742,255.065430 328.914978,262.920868 328.444031,270.713348   C327.089294,293.129120 324.581573,315.522034 324.364594,337.941711   C324.239105,350.908966 326.618256,364.165222 329.718018,376.839508   C334.938965,398.187012 349.388306,401.638397 369.304688,395.127747   C383.356934,390.534058 390.899933,379.976196 392.010101,365.297760   C393.567291,344.708740 394.711823,324.088501 396.051025,303.006592  z"
   id="path234" />
<path
   fill="#F99500"
   opacity="1.000000"
   stroke="none"
   d=" M652.067017,344.931061   C644.009949,340.303009 635.957031,336.294983 628.741089,331.119873   C621.411499,325.863251 618.747314,317.626099 618.177124,308.825226   C615.793152,272.029022 647.687744,238.550690 684.460022,239.191422   C701.969299,239.496521 716.437866,252.622269 717.602478,270.282257   C718.077515,277.485565 716.842590,284.861115 715.792053,292.071777   C715.446106,294.446198 713.663147,297.043243 711.785706,298.672363   C707.907654,302.037415 702.915405,300.165802 702.007263,295.151855   C701.358398,291.569855 701.248657,287.880646 701.036011,284.231232   C700.535400,275.639740 696.353638,270.764282 687.941162,269.059479   C680.893616,267.631348 673.741089,267.553314 667.485779,271.155762   C659.782227,275.592285 652.453064,280.748932 645.329407,286.084717   C642.791809,287.985474 640.959412,291.127441 639.440552,294.034821   C633.956543,304.531830 636.700562,313.317566 647.792297,317.460693   C659.121582,321.692535 671.064392,324.251434 682.548035,328.109894   C692.115479,331.324554 702.086365,334.206451 710.682739,339.266998   C730.004578,350.641571 734.897217,375.442535 722.299072,394.096466   C707.987427,415.287506 672.799438,429.854248 647.201538,421.993378   C626.183655,415.538971 618.017761,394.558899 629.663391,375.631989   C632.622131,370.823364 634.503113,370.758301 637.451050,375.472046   C639.742615,379.136261 641.755737,382.983276 644.179810,386.554047   C647.989319,392.165680 653.380981,394.700134 660.237244,395.083130   C673.075684,395.800293 685.025391,393.112305 696.256226,386.995514   C698.150269,385.963928 699.997498,384.811737 701.739685,383.541473   C713.569580,374.916260 712.844482,366.070160 699.294556,360.422424   C690.278992,356.664612 680.737549,354.165253 671.421814,351.132111   C665.102661,349.074615 658.766846,347.068237 652.067017,344.931061  z"
   id="path236" />
<path
   fill="#FA9600"
   opacity="1.000000"
   stroke="none"
   d=" M535.965393,266.800720   C519.813965,264.327820 507.960083,270.725769 498.886902,283.086029   C484.169739,303.135162 477.145172,326.040222 475.304047,350.499603   C473.647888,372.502228 489.941589,391.270081 513.471741,394.911865   C530.685059,397.576050 547.725830,395.208649 564.330078,390.573090   C568.509399,389.406281 572.022766,385.612274 575.655823,382.785980   C581.437439,378.288208 586.492920,379.385437 589.695129,386.052429   C594.297668,395.634460 590.307434,406.436462 579.675598,412.753448   C570.683105,418.096497 560.838257,420.982361 550.538330,422.499420   C531.391479,425.319550 512.447937,425.691620 493.853455,418.983917   C470.741669,410.646606 458.316193,394.088531 455.969696,369.933411   C452.467957,333.885498 460.735809,300.472168 480.243164,270.104156   C489.007690,256.460114 500.695587,245.469971 516.512573,240.045334   C538.943481,232.352356 575.761841,245.680847 578.771851,284.373505   C579.384155,292.244385 578.317505,299.665070 573.728516,306.271515   C571.509766,309.465637 568.556213,311.546936 564.421326,310.799774   C560.213989,310.039520 558.997314,306.679688 558.460632,303.102783   C557.572449,297.183990 557.195801,291.179779 556.123413,285.299133   C554.050476,273.931213 547.915894,268.371582 535.965393,266.800720  z"
   id="path238" />
<path
   fill="#FA9600"
   opacity="1.000000"
   stroke="none"
   d=" M843.161255,395.243164   C850.064941,394.409393 856.541992,393.830994 862.940796,392.777710   C869.391479,391.715851 875.168213,389.442841 880.143677,384.596222   C888.043579,376.900696 894.924866,379.374512 897.384644,390.200409   C899.412964,399.127625 895.205505,407.337860 885.801941,412.930725   C874.217224,419.820892 861.336487,422.496582 848.218689,423.709747   C833.257996,425.093353 818.366272,424.819916 803.720337,420.187683   C778.984497,412.364258 764.811829,395.817413 762.314880,370.118256   C758.801453,333.958801 767.020630,300.310059 786.817261,269.856415   C795.562195,256.403900 807.052429,245.298447 822.736267,240.124054   C851.486511,230.638779 883.323303,252.884827 885.019348,283.181061   C885.463989,291.124573 885.221436,298.839600 880.493347,305.707123   C878.074341,309.220642 875.074524,311.784821 870.504395,310.720398   C866.167419,309.710388 865.284241,306.064514 864.784790,302.275452   C863.980652,296.175354 863.205994,290.070251 862.297424,283.985382   C860.842468,274.241882 854.351868,269.142944 845.417969,267.233276   C830.523987,264.049561 817.468140,267.808838 807.828857,279.958099   C790.568970,301.712250 782.265808,326.941193 781.928528,354.448639   C781.705139,372.667664 794.242249,387.212463 812.563904,393.155701   C822.481873,396.372894 832.527588,396.388580 843.161255,395.243164  z"
   id="path240" />
<path
   fill="#F59300"
   opacity="1.000000"
   stroke="none"
   d=" M533.077759,529.563232   C530.282227,552.781677 527.499390,575.540283 524.826233,598.311768   C524.304138,602.758667 521.662781,604.750366 517.628174,605.200745   C513.199097,605.695190 508.915955,603.097412 508.310944,598.789856   C507.066193,589.926758 505.892517,580.985840 505.715057,572.056580   C505.453979,558.916199 506.093140,545.758179 506.338501,532.607483   C506.371155,530.858154 506.343018,529.107605 506.343018,527.357666   C505.939362,527.270813 505.535675,527.183960 505.132019,527.097107   C502.314301,534.222351 499.452423,541.330505 496.693359,548.478333   C494.600739,553.899841 492.562317,559.345032 490.646027,564.830750   C489.368927,568.486877 487.729797,571.594055 483.295990,571.865051   C478.462463,572.160583 475.817596,569.056213 474.369843,565.221375   C471.323242,557.151672 468.754944,548.901489 465.987549,540.726257   C464.821075,537.280334 463.647430,533.836853 462.477051,530.392212   C461.941833,530.474121 461.406647,530.556030 460.871429,530.637878   C460.613190,532.466675 460.216217,534.288147 460.118469,536.125488   C459.287170,551.750244 458.599518,567.383179 457.665100,583.001526   C457.367920,587.969055 456.614227,592.926514 455.780914,597.839600   C455.053040,602.131042 452.521912,605.248535 448.101410,605.962708   C443.491821,606.707397 439.669739,604.617676 437.876312,600.473083   C436.050049,596.252625 434.612732,591.682312 434.032166,587.134033   C430.477844,559.288025 429.734985,531.396484 433.847443,503.524933   C434.232452,500.915558 435.090637,498.331635 436.048309,495.859558   C438.814148,488.720062 444.687805,484.530762 451.104919,484.898773   C457.956360,485.291687 463.322510,489.990997 465.755463,497.930450   C470.622223,513.811951 475.367645,529.730835 480.292633,545.594116   C481.198425,548.511658 482.716461,551.239197 483.951874,554.054443   C484.415436,553.903198 484.878967,553.752014 485.342499,553.600769   C487.619995,545.705322 489.841217,537.793030 492.188446,529.918396   C495.499756,518.809509 498.716614,507.666840 502.330902,496.655823   C505.027832,488.439453 511.739502,483.903809 519.153381,484.565125   C525.407166,485.122955 531.888977,491.376343 532.568909,499.337372   C533.411621,509.204895 532.999146,519.179565 533.077759,529.563232  z"
   id="path242" />
<path
   fill="#F59300"
   opacity="1.000000"
   stroke="none"
   d=" M690.817505,514.999756   C690.902710,532.358521 689.910889,549.155518 686.239319,565.630249   C684.737671,572.368225 682.596802,579.175354 679.450806,585.283508   C675.187073,593.561951 667.934937,594.554260 662.344543,587.218201   C656.687256,579.794312 652.192749,571.315491 648.236267,562.811401   C644.185974,554.105713 641.416931,544.804993 638.052551,535.777527   C637.728943,534.908997 637.161255,534.131470 635.945129,531.937561   C635.199524,534.770386 634.522583,536.288513 634.434204,537.840149   C633.477783,554.626404 632.830872,571.433838 631.598999,588.198792   C631.204773,593.563782 629.909363,599.057495 627.877380,604.022095   C626.913452,606.377197 623.093445,609.192688 620.848816,608.969482   C618.221680,608.708191 614.362305,605.763611 613.718018,603.286011   C611.139893,593.370789 608.452881,583.244263 607.931091,573.086731   C607.009827,555.150818 607.314148,537.126526 607.787964,519.157227   C607.974121,512.097900 609.858948,505.060608 611.223206,498.062622   C612.270935,492.688202 616.165344,489.807495 621.228027,488.941406   C626.338318,488.067169 630.040771,491.005219 632.052734,495.313721   C638.226746,508.534454 644.244324,521.835938 649.957397,535.261414   C653.726929,544.119690 656.848267,553.253174 660.321655,562.239380   C660.629395,563.035645 661.395630,563.654663 662.791321,565.423767   C663.256104,562.579895 663.674011,560.929688 663.775391,559.260254   C664.643494,544.966370 665.355408,530.662231 666.326111,516.375610   C666.777100,509.739563 667.503967,503.107361 668.458801,496.524597   C669.461487,489.612183 674.351074,484.841766 679.629211,485.073120   C685.352600,485.323975 690.066711,490.856934 690.414856,498.012360   C690.681885,503.501862 690.696411,509.003662 690.817505,514.999756  z"
   id="path244" />
<path
   fill="#F5F5F5"
   opacity="1.000000"
   stroke="none"
   d=" M1274.666992,494.659912   C1297.871704,471.753906 1336.596924,478.908020 1349.212524,508.638672   C1359.836060,533.674561 1348.340698,561.949585 1320.741333,570.770203   C1297.069336,578.335632 1272.062134,566.331238 1263.571045,541.488098   C1257.682617,524.259583 1261.961548,508.377625 1274.666992,494.659912  M1316.552246,536.971008   C1317.386963,535.743774 1318.348267,534.583069 1319.034424,533.277771   C1322.117676,527.412292 1320.406494,518.607666 1315.369995,514.038513   C1309.936523,509.109253 1301.370850,508.295654 1295.544800,512.155579   C1287.073364,517.768127 1285.019165,528.323730 1290.926392,535.888184   C1297.664062,544.516174 1307.723755,545.147644 1316.552246,536.971008  z"
   id="path246" />
<path
   fill="#F5F5F5"
   opacity="1.000000"
   stroke="none"
   d=" M1409.212524,527.917969   C1395.497314,501.457916 1408.081421,472.900024 1431.535400,463.535645   C1448.543213,456.744934 1464.773438,459.041504 1478.666504,470.936584   C1492.526489,482.803192 1497.405273,498.473938 1493.463989,516.313416   C1489.571045,533.934448 1473.703979,548.314026 1456.303345,550.915771   C1438.010864,553.650940 1420.041260,545.252258 1410.303833,529.425232   C1410.043579,529.002075 1409.702393,528.628723 1409.212524,527.917969  M1440.645996,492.848755   C1428.655762,500.537628 1428.982056,512.666443 1437.157837,520.383972   C1442.900635,525.804932 1451.133667,526.221802 1457.706543,521.605652   C1464.104126,517.112610 1466.572144,509.411102 1463.818726,502.533112   C1459.886353,492.710022 1452.602539,489.497253 1440.645996,492.848755  z"
   id="path248" />
<path
   fill="#F39200"
   opacity="1.000000"
   stroke="none"
   d=" M753.101318,512.989136   C753.109436,511.347015 753.164429,510.178650 753.109009,509.015594   C752.932922,505.319885 753.073181,501.867889 757.865051,501.163544   C763.044067,500.402283 768.064026,502.808746 769.157166,507.165741   C770.203674,511.336578 771.035339,515.648193 771.230286,519.931213   C772.227112,541.830383 770.131958,563.483093 765.117859,584.815918   C764.217041,588.648254 762.845764,592.585266 760.715088,595.833313   C759.408142,597.825562 756.178101,599.681274 753.934814,599.546509   C752.388245,599.453674 750.871887,595.945801 749.694458,593.773193   C749.047668,592.579712 749.130859,590.990601 748.798340,589.083679   C747.463013,589.721802 746.564697,590.033875 745.791443,590.537842   C729.901550,600.893066 710.722656,593.114868 706.627686,574.694824   C701.950439,553.655518 701.409302,532.509033 704.726562,511.235413   C706.036926,502.832550 709.058716,499.349915 715.380066,499.076569   C723.459106,498.727142 728.342224,502.572845 728.537415,511.253174   C728.805908,523.194031 727.964539,535.160339 727.581360,547.115173   C727.277649,556.590027 726.650757,566.066467 726.728577,575.537598   C726.785095,582.420593 730.330811,586.861633 735.131897,587.584290   C739.688904,588.270081 745.028137,584.712585 746.560059,578.335205   C748.605591,569.820129 749.976990,561.071350 750.770691,552.344116   C751.945984,539.420898 752.359680,526.428406 753.101318,512.989136  z"
   id="path250" />
<path
   fill="#EF8F00"
   opacity="1.000000"
   stroke="none"
   d=" M566.430664,584.931030   C568.414551,590.261536 570.945923,591.154724 577.324341,589.357483   C579.896362,588.632751 582.534302,588.141968 585.142212,587.544678   C585.447327,588.180420 585.752441,588.816162 586.057495,589.451904   C584.100403,590.810181 582.318542,592.741943 580.148865,593.405029   C575.888062,594.707275 571.447327,595.746765 567.017212,596.104431   C556.081299,596.987305 551.299438,593.426697 549.040405,582.635376   C545.366028,565.082947 544.680847,547.321472 546.237061,529.476379   C546.741943,523.686890 547.315796,517.891846 548.184265,512.148682   C549.124695,505.929596 553.169373,502.214569 558.918152,500.173889   C568.664246,496.714142 578.474487,496.258026 588.148560,500.199188   C590.016541,500.960175 591.316162,503.116028 592.877991,504.628479   C590.876831,505.367920 588.916870,506.569916 586.866089,506.752930   C582.235596,507.166229 577.556213,506.994019 572.904175,507.215912   C569.030762,507.400696 566.778687,509.313568 566.642700,513.455933   C566.206299,526.759705 565.715576,540.062012 565.181030,553.362183   C565.039795,556.876160 566.746277,558.119080 570.035522,557.978149   C572.693970,557.864197 575.396545,557.681702 578.007446,558.046082   C579.222046,558.215576 580.265686,559.610168 581.386780,560.449402   C580.266541,561.482239 579.298096,563.075195 577.993774,563.428650   C575.454102,564.116882 572.722168,564.076538 570.077454,564.400513   C566.747742,564.808289 564.969727,566.583862 565.242310,570.086853   C565.616211,574.891907 565.980835,579.697693 566.430664,584.931030  z"
   id="path252" />
<path
   fill="#E7B500"
   opacity="1.000000"
   stroke="none"
   d=" M1237.949219,450.982269   C1246.575684,447.191833 1254.824829,443.351440 1263.319214,440.165253   C1267.624512,438.550323 1271.130371,440.898834 1271.693115,444.672760   C1272.293701,448.700562 1270.230469,451.801270 1266.360962,452.142334   C1252.270874,453.384430 1243.017822,461.030792 1236.967407,473.456451   C1235.969482,475.505615 1233.452637,477.432037 1231.256592,478.041534   C1230.010254,478.387482 1227.757446,476.154114 1226.411133,474.671021   C1225.691162,473.878021 1225.426758,472.022461 1225.821533,470.971008   C1228.559326,463.677551 1231.448608,456.423645 1237.949219,450.982269  z"
   id="path254" />
<path
   fill="#E6B500"
   opacity="1.000000"
   stroke="none"
   d=" M1431.308594,431.119568   C1429.446411,432.557678 1428.028076,434.276123 1426.248901,434.824738   C1424.292480,435.428040 1421.079468,435.801239 1420.099976,434.731232   C1418.941650,433.465820 1418.674316,430.010925 1419.602539,428.439545   C1424.411621,420.298737 1431.925537,415.563019 1441.113037,413.842529   C1444.648804,413.180359 1448.417236,413.545807 1452.063599,413.742737   C1456.854614,414.001465 1460.267944,417.621338 1459.677002,421.711090   C1458.927368,426.899628 1455.133179,426.657745 1451.317505,426.074310   C1444.068970,424.966034 1437.480225,426.459320 1431.308594,431.119568  z"
   id="path256" />
<path
   fill="#191400"
   opacity="1.000000"
   stroke="none"
   d=" M1393.395020,658.317505   C1379.999390,657.540222 1369.435669,652.197998 1360.962524,642.316101   C1357.987549,638.846497 1357.677734,635.159241 1358.448975,631.185913   C1358.671875,630.038025 1360.170044,628.534668 1361.283203,628.340759   C1362.293701,628.164795 1363.865967,629.307373 1364.682251,630.290588   C1366.885376,632.944458 1368.496826,636.144653 1370.912476,638.557983   C1382.174805,649.809143 1395.863892,650.436218 1410.150757,646.509583   C1417.369263,644.525574 1418.924072,637.655090 1420.943237,631.515137   C1421.563721,629.628174 1421.619141,627.417969 1422.669312,625.848145   C1423.730713,624.261414 1425.704346,623.285034 1427.278320,622.041260   C1428.596558,623.738342 1430.802979,625.299683 1431.086792,627.155090   C1432.755127,638.064026 1422.904907,653.343994 1411.960938,656.194702   C1406.133301,657.712769 1399.899048,657.669006 1393.395020,658.317505  z"
   id="path258" />
<path
   fill="#0C0C0C"
   opacity="1.000000"
   stroke="none"
   d=" M1316.277954,537.216797   C1307.723755,545.147644 1297.664062,544.516174 1290.926392,535.888184   C1285.019165,528.323730 1287.073364,517.768127 1295.544800,512.155579   C1301.370850,508.295654 1309.936523,509.109253 1315.369995,514.038513   C1320.406494,518.607666 1322.117676,527.412292 1319.034424,533.277771   C1318.348267,534.583069 1317.386963,535.743774 1316.277954,537.216797  z"
   id="path260" />
<path
   fill="#0D0D0D"
   opacity="1.000000"
   stroke="none"
   d=" M1441.018066,492.744446   C1452.602539,489.497253 1459.886353,492.710022 1463.818726,502.533112   C1466.572144,509.411102 1464.104126,517.112610 1457.706543,521.605652   C1451.133667,526.221802 1442.900635,525.804932 1437.157837,520.383972   C1428.982056,512.666443 1428.655762,500.537628 1441.018066,492.744446  z"
   id="path262" />
</svg>
