<svg version="1.1" id="Layer_1" xmlns="http://www.w3.org/2000/svg" xmlns:xlink="http://www.w3.org/1999/xlink" x="0px" y="0px"
	 width="100%" viewBox="0 0 4000 4000" enable-background="new 0 0 4000 4000" xml:space="preserve">
<path fill="#FFFFFF" opacity="1.000000" stroke="none" 
	d="
M3984.015137,4002.000000 
	C2656.009033,4002.000000 1329.010010,4002.000000 2.008351,4002.000000 
	C2.005568,2668.671387 2.005568,1335.343018 2.002784,2.010855 
	C1335.327393,2.007236 2668.654785,2.007236 4001.986816,2.003618 
	C4001.991211,1335.326294 4001.991211,2668.652588 4001.991211,4002.000000 
	C3996.340820,4002.000000 3990.681641,4002.000000 3984.015137,4002.000000 
M2823.148438,2914.606934 
	C2875.651611,2914.606934 2928.154541,2914.606934 2980.710449,2914.606934 
	C2980.710449,2665.072754 2980.710449,2416.939453 2980.710449,2168.656982 
	C2909.892090,2168.656982 2839.713623,2168.656982 2768.490234,2168.656982 
	C2768.490234,2293.869629 2768.490234,2418.588867 2768.490234,2543.307861 
	C2767.864014,2543.515381 2767.238037,2543.722900 2766.611816,2543.930176 
	C2672.683105,2418.581055 2578.754639,2293.231934 2485.235840,2168.429688 
	C2426.179688,2168.429688 2368.218018,2168.429688 2309.766113,2168.429688 
	C2309.766113,2417.117920 2309.766113,2665.533691 2309.766113,2913.940430 
	C2380.852295,2913.940430 2451.299072,2913.940430 2522.586914,2913.940430 
	C2522.586914,2787.878174 2522.586914,2662.479980 2522.586914,2534.947754 
	C2525.934082,2539.169434 2527.999512,2541.640869 2529.922119,2544.219238 
	C2618.943359,2663.603027 2708.065186,2782.912109 2796.736084,2902.555908 
	C2803.411133,2911.562256 2810.004883,2916.722168 2823.148438,2914.606934 
M1854.784546,2847.793701 
	C1906.883179,2807.629395 1945.734131,2757.264160 1970.263306,2696.206787 
	C2004.039551,2612.132080 2007.848022,2525.843750 1986.789795,2438.316895 
	C1969.587402,2366.816406 1934.058350,2305.551514 1879.672852,2255.827148 
	C1811.119141,2193.148682 1728.857300,2162.398438 1637.415771,2153.901123 
	C1597.752197,2150.215088 1558.234985,2151.669189 1518.817505,2157.657227 
	C1455.971069,2167.204590 1397.493408,2188.174561 1345.348267,2224.851562 
	C1254.560791,2288.708008 1204.602173,2377.152100 1189.880249,2486.395752 
	C1185.177246,2521.295410 1186.029541,2556.195068 1189.770020,2591.090576 
	C1195.559570,2645.101562 1211.333252,2695.990479 1238.885986,2742.877197 
	C1288.097778,2826.620850 1360.678711,2881.040771 1452.660034,2909.863281 
	C1530.543091,2934.267822 1609.859863,2936.699951 1689.714966,2921.023682 
	C1749.709595,2909.246094 1804.619995,2885.495605 1854.784546,2847.793701 
M558.654541,2929.821777 
	C595.992920,2927.266357 632.783264,2921.455078 668.365051,2909.637695 
	C788.595459,2869.707275 870.528503,2790.916992 910.453857,2669.864502 
	C916.160706,2652.561523 920.509216,2634.890137 923.097412,2616.370117 
	C849.961487,2616.370117 777.387573,2616.370117 704.862976,2616.370117 
	C703.235535,2620.050049 701.793640,2623.413330 700.270447,2626.739258 
	C680.505981,2669.895020 649.030457,2700.824219 604.640320,2718.237549 
	C577.835266,2728.752930 550.026001,2732.578857 521.378113,2730.401611 
	C448.943512,2724.895996 398.152130,2688.822021 371.563873,2621.208496 
	C352.676270,2573.177979 351.680756,2523.427734 366.776611,2474.187500 
	C383.161926,2420.741211 417.256348,2382.229736 470.330292,2362.857666 
	C512.692200,2347.395264 555.941650,2347.300537 598.718506,2361.865967 
	C646.453491,2378.119385 680.484070,2409.387207 699.361145,2456.543945 
	C700.085266,2458.353027 700.924316,2460.115967 701.587891,2461.623535 
	C774.198547,2461.623535 846.261597,2461.623535 918.660034,2461.623535 
	C918.320740,2459.239014 918.252686,2457.558105 917.828918,2455.972168 
	C914.479797,2443.438965 911.558228,2430.764404 907.586548,2418.429199 
	C880.860107,2335.420166 832.666199,2268.102539 759.998230,2219.219727 
	C707.386230,2183.828125 649.022522,2163.650879 586.237915,2155.777588 
	C528.073486,2148.483398 470.415222,2150.915039 413.765228,2166.290527 
	C291.791504,2199.396240 206.819138,2274.367432 162.957687,2393.341553 
	C132.622177,2475.626953 129.859375,2560.495117 150.358139,2645.227783 
	C183.089996,2780.526123 266.680786,2869.953125 399.662506,2912.156006 
	C450.725861,2928.361572 503.425812,2932.350098 558.654541,2929.821777 
M3546.233154,2438.798340 
	C3546.233154,2406.613770 3546.233154,2374.429199 3546.233154,2341.512451 
	C3646.475830,2341.512451 3745.322266,2341.512451 3844.054443,2341.512451 
	C3846.089600,2327.430420 3845.450928,2175.334717 3843.480957,2168.697998 
	C3673.606689,2168.697998 3503.774170,2168.697998 3333.553711,2168.697998 
	C3333.553711,2417.421875 3333.553711,2665.605225 3333.553711,2913.882324 
	C3508.093262,2913.882324 3682.178955,2913.882324 3856.092285,2913.882324 
	C3856.092285,2855.279785 3856.092285,2797.403320 3856.092285,2738.570801 
	C3752.770020,2738.570801 3649.956543,2738.570801 3546.826904,2738.570801 
	C3546.826904,2699.826172 3546.826904,2662.044189 3546.826904,2623.293457 
	C3636.890869,2623.293457 3726.365479,2623.293457 3815.843994,2623.293457 
	C3815.843994,2565.415283 3815.843994,2508.510010 3815.843994,2450.560059 
	C3725.977051,2450.560059 3636.524170,2450.560059 3546.233154,2450.560059 
	C3546.233154,2446.599365 3546.233154,2443.676270 3546.233154,2438.798340 
M3461.000000,3074.248779 
	C2364.802979,3074.248779 1268.605957,3074.248779 172.257278,3074.248779 
	C172.257278,3085.473633 172.257278,3095.609131 172.257278,3105.587891 
	C1393.580933,3105.587891 2614.326660,3105.587891 3835.149902,3105.587891 
	C3835.149902,3095.008057 3835.149902,3085.146484 3835.149902,3074.248779 
	C3710.783936,3074.248779 3586.892090,3074.248779 3461.000000,3074.248779 
M3086.596680,3374.396729 
	C3081.318848,3410.986572 3064.352051,3440.389893 3032.639648,3460.184082 
	C3008.317871,3475.365479 2981.229736,3480.312256 2953.069824,3477.732910 
	C2903.250488,3473.169678 2867.337891,3448.469727 2849.240234,3401.108887 
	C2837.231689,3369.683594 2836.656250,3337.198975 2846.475342,3304.998047 
	C2856.599365,3271.796387 2877.207520,3246.934326 2908.976562,3232.314453 
	C2932.177979,3221.637451 2956.712158,3218.452881 2982.123535,3221.638672 
	C3023.765137,3226.859375 3054.952881,3247.216064 3074.524170,3284.701904 
	C3075.867432,3287.274414 3077.436279,3289.728760 3078.666016,3291.836914 
	C3088.026367,3291.836914 3096.621582,3291.836914 3105.430420,3291.836914 
	C3105.250732,3290.498047 3105.293213,3289.479980 3104.969727,3288.596191 
	C3094.574463,3260.199463 3077.149170,3237.112305 3051.937012,3220.373779 
	C3018.931641,3198.461670 2982.420410,3190.834229 2943.315918,3195.904053 
	C2891.712646,3202.594727 2852.753418,3228.356934 2829.976562,3275.474121 
	C2807.937988,3321.062988 2807.900391,3368.298584 2826.309082,3415.048340 
	C2840.761719,3451.751465 2867.015869,3477.874756 2903.684814,3492.934326 
	C2927.524658,3502.724854 2952.501465,3505.932373 2978.100342,3503.779541 
	C3021.073242,3500.165283 3056.824219,3482.533447 3083.180908,3447.840088 
	C3101.352051,3423.920654 3110.814941,3396.432861 3114.033447,3366.738037 
	C3114.911377,3358.638184 3115.107666,3350.464355 3115.629883,3342.117676 
	C3061.569824,3342.117676 3008.973877,3342.117676 2956.104004,3342.117676 
	C2956.104004,3350.234131 2956.104004,3358.030762 2956.104004,3366.742676 
	C3000.105713,3366.742676 3043.546875,3366.742676 3087.525146,3366.742676 
	C3087.284668,3369.318848 3087.134277,3370.930908 3086.596680,3374.396729 
M2586.996582,3194.321289 
	C2575.417480,3195.499268 2563.677002,3195.832520 2552.287354,3198.003906 
	C2506.318604,3206.767090 2471.374023,3231.361084 2450.005615,3273.272461 
	C2428.667725,3315.123779 2427.300781,3359.108887 2440.984619,3403.375732 
	C2454.023682,3445.555420 2481.653320,3475.219482 2522.552002,3492.282959 
	C2553.290283,3505.107422 2585.313965,3507.544678 2617.633789,3501.676758 
	C2671.815186,3491.840088 2710.391602,3461.921143 2730.309326,3409.710693 
	C2741.651855,3379.979248 2743.097900,3349.243896 2737.851318,3318.229980 
	C2730.410156,3274.243652 2708.539307,3239.420654 2669.985840,3215.991699 
	C2645.132812,3200.888428 2617.613037,3195.304443 2586.996582,3194.321289 
M1814.941406,3434.107422 
	C1831.062256,3461.051270 1853.838501,3480.193604 1882.767090,3492.223877 
	C1913.867554,3505.157959 1946.246460,3507.673340 1978.874390,3501.557373 
	C2034.272339,3491.173584 2072.989502,3459.911621 2092.056641,3406.054199 
	C2102.547852,3376.420410 2103.645752,3345.919189 2097.766602,3315.365479 
	C2087.962402,3264.415039 2059.989746,3227.010498 2011.655151,3206.731689 
	C1980.164062,3193.519775 1947.114746,3191.252197 1913.563477,3197.749268 
	C1863.201050,3207.502441 1825.989014,3234.968018 1806.287720,3282.521973 
	C1785.228760,3333.352539 1788.411499,3383.968994 1814.941406,3434.107422 
M1493.449341,3460.997803 
	C1493.553833,3390.349365 1493.657715,3319.700684 1493.788330,3249.052246 
	C1493.788696,3248.852783 1494.154053,3248.604004 1494.398682,3248.467285 
	C1494.684326,3248.307861 1495.024902,3248.246582 1495.620117,3248.051270 
	C1497.702637,3250.915039 1499.859009,3253.837402 1501.971069,3256.791260 
	C1531.224731,3297.708496 1560.477417,3338.626465 1589.720459,3379.551270 
	C1616.445557,3416.952393 1643.133057,3454.380615 1669.934814,3491.726807 
	C1671.782349,3494.301270 1674.248779,3497.943359 1676.765015,3498.241699 
	C1684.143188,3499.116455 1691.691895,3498.553223 1698.763306,3498.553223 
	C1698.763306,3398.234863 1698.763306,3299.405273 1698.763306,3200.695312 
	C1690.157715,3200.695312 1682.290527,3200.695312 1673.378662,3200.695312 
	C1673.378662,3284.299561 1673.378662,3367.339844 1673.378662,3450.380371 
	C1669.819336,3448.237549 1667.806030,3445.730713 1665.935669,3443.121094 
	C1629.844360,3392.760742 1593.772217,3342.386230 1557.690430,3292.019043 
	C1537.321655,3263.586182 1516.979736,3235.133545 1496.502563,3206.778809 
	C1494.668823,3204.239502 1492.121460,3200.780518 1489.571777,3200.467773 
	C1482.497437,3199.599121 1475.246704,3200.166504 1468.295044,3200.166504 
	C1468.295044,3300.381348 1468.295044,3399.212402 1468.295044,3498.175781 
	C1476.777100,3498.175781 1484.669556,3498.175781 1493.449219,3498.175781 
	C1493.449219,3486.147461 1493.449219,3474.571777 1493.449341,3460.997803 
M1015.487183,3398.298340 
	C1012.553772,3398.298340 1009.620361,3398.298340 1006.756714,3398.298340 
	C1005.154114,3402.000244 1003.846985,3405.046387 1002.519165,3408.083496 
	C991.988953,3432.165039 974.979431,3450.211914 951.878174,3462.652100 
	C927.656067,3475.696533 901.649048,3480.137451 874.567261,3477.711426 
	C823.028320,3473.094238 784.073608,3442.300293 768.809570,3393.599609 
	C761.740540,3371.045166 760.086365,3347.809814 764.180786,3324.442139 
	C771.273376,3283.964111 791.612671,3252.636475 828.946045,3233.848877 
	C854.443726,3221.017578 881.706787,3217.618164 909.673584,3222.230225 
	C951.966797,3229.204834 983.497498,3251.084229 1001.304321,3290.985596 
	C1002.226196,3293.051514 1003.395996,3295.006592 1004.011719,3296.178467 
	C1013.317749,3296.178467 1021.714722,3296.178467 1030.748169,3296.178467 
	C1018.503113,3259.567139 996.707520,3232.004150 963.840942,3213.690674 
	C933.445557,3196.753906 900.681152,3191.276367 866.340820,3195.925049 
	C807.770264,3203.853760 767.001221,3234.904053 745.745483,3290.444580 
	C734.883972,3318.824707 733.187012,3348.299316 738.126526,3378.005127 
	C747.076904,3431.830811 775.342529,3471.421631 826.380737,3492.831787 
	C858.734924,3506.403809 892.508972,3508.004395 926.345337,3499.671631 
	C977.114014,3487.169678 1012.512207,3456.612549 1030.853027,3407.159912 
	C1031.831543,3404.521240 1032.310791,3401.697754 1033.194580,3398.298340 
	C1027.225952,3398.298340 1022.248901,3398.298340 1015.487183,3398.298340 
M3621.265625,3455.666260 
	C3632.028564,3473.838379 3647.600342,3486.277344 3667.000000,3494.240234 
	C3691.712158,3504.383789 3717.460693,3505.713867 3743.589111,3503.075928 
	C3758.931885,3501.526855 3773.491943,3497.079102 3787.421387,3490.253662 
	C3838.454102,3465.247314 3843.852295,3391.830322 3794.709229,3362.585449 
	C3779.407471,3353.479248 3763.205322,3346.775879 3746.156006,3342.041504 
	C3730.773926,3337.770264 3715.198975,3334.189453 3699.833008,3329.864014 
	C3684.721924,3325.610107 3670.119873,3320.020508 3657.495117,3310.305908 
	C3646.943848,3302.186768 3640.481201,3291.781006 3639.743652,3278.195068 
	C3638.427246,3253.951416 3650.374512,3234.957275 3673.888672,3226.468994 
	C3701.447998,3216.520508 3729.588135,3216.229980 3757.059326,3226.535400 
	C3778.471680,3234.567627 3791.869385,3250.430176 3796.205811,3273.316650 
	C3796.944824,3277.216553 3797.702148,3281.113281 3798.463135,3285.075439 
	C3806.838623,3285.075439 3815.016602,3285.075439 3823.091797,3285.075439 
	C3823.289062,3283.792480 3823.538086,3283.120850 3823.465820,3282.485596 
	C3823.015381,3278.513184 3822.649658,3274.522217 3821.970703,3270.586182 
	C3816.799561,3240.600098 3801.129639,3218.550049 3773.125732,3205.647217 
	C3757.730713,3198.553711 3741.428955,3195.583496 3724.736328,3194.623779 
	C3700.097900,3193.206787 3676.054443,3196.256348 3653.918457,3207.826660 
	C3629.031494,3220.835449 3614.831543,3241.200439 3613.421631,3269.855957 
	C3611.964111,3299.475830 3624.422363,3321.584473 3649.903320,3335.892334 
	C3661.425537,3342.362061 3673.790527,3347.791992 3686.376465,3351.798340 
	C3705.998779,3358.044434 3726.215088,3362.396973 3746.025635,3368.088379 
	C3759.501221,3371.960205 3772.374023,3377.477051 3783.608887,3386.157959 
	C3799.844482,3398.702637 3805.006104,3415.360352 3800.803711,3434.968018 
	C3796.719727,3454.023193 3783.696289,3465.561523 3766.274658,3472.018066 
	C3740.200684,3481.680664 3713.430908,3482.369385 3686.822754,3474.449707 
	C3657.776367,3465.804932 3639.583008,3446.872314 3634.810059,3416.237305 
	C3634.510986,3414.316650 3634.074707,3412.417725 3633.744385,3410.723389 
	C3625.176758,3410.723389 3617.048340,3410.723389 3608.786865,3410.723389 
	C3609.377930,3426.711914 3613.152588,3441.044434 3621.265625,3455.666260 
M1161.078003,3359.052979 
	C1215.961304,3359.052979 1270.844727,3359.052979 1326.568237,3359.052979 
	C1326.568237,3405.917236 1326.568237,3451.759766 1326.568237,3498.000000 
	C1329.297729,3498.264404 1331.226440,3498.591553 1333.158691,3498.612793 
	C1339.412231,3498.681885 1345.667114,3498.638672 1352.044922,3498.638672 
	C1352.044922,3398.685059 1352.044922,3299.625244 1352.044922,3200.615479 
	C1343.422119,3200.615479 1335.534058,3200.615479 1326.489990,3200.615479 
	C1326.489990,3245.174805 1326.489990,3289.270752 1326.489990,3333.460938 
	C1267.817749,3333.460938 1210.318604,3333.460938 1151.698608,3333.460938 
	C1151.698608,3288.865234 1151.698608,3244.763672 1151.698608,3200.895996 
	C1142.439331,3200.895996 1134.316650,3200.895996 1126.539795,3200.895996 
	C1126.539795,3300.462646 1126.539795,3399.266602 1126.539795,3497.910156 
	C1135.334839,3497.910156 1143.452637,3497.910156 1152.354492,3497.910156 
	C1152.354492,3451.309570 1152.354492,3405.433594 1152.354492,3359.430908 
	C1155.131470,3359.275391 1157.113525,3359.164551 1161.078003,3359.052979 
M3374.785400,3327.073242 
	C3374.785400,3293.158203 3374.785400,3259.243164 3374.785400,3224.198975 
	C3425.184326,3224.198975 3474.614502,3224.198975 3523.702148,3224.198975 
	C3523.702148,3215.566650 3523.702148,3208.090576 3523.702148,3200.671387 
	C3465.189941,3200.671387 3407.375488,3200.671387 3349.093262,3200.671387 
	C3349.093262,3300.020020 3349.093262,3398.824219 3349.093262,3498.066650 
	C3409.246338,3498.066650 3469.048584,3498.066650 3528.748535,3498.066650 
	C3528.748535,3489.959717 3528.748535,3482.456543 3528.748535,3474.154297 
	C3477.237549,3474.154297 3426.379395,3474.154297 3375.396973,3474.154297 
	C3375.396973,3435.219971 3375.396973,3397.106445 3375.396973,3358.227539 
	C3421.749756,3358.159424 3467.506104,3358.262695 3513.125244,3358.167969 
	C3513.125244,3349.482910 3513.125244,3342.302246 3513.125244,3334.293213 
	C3509.325684,3334.293213 3506.059570,3334.292969 3502.793213,3334.292969 
	C3463.807617,3334.292969 3424.821777,3334.294678 3385.836182,3334.289795 
	C3383.171143,3334.289551 3380.504150,3334.295410 3377.841553,3334.201172 
	C3374.268066,3334.074707 3374.932861,3331.327148 3374.785400,3327.073242 
M504.520081,3389.004395 
	C504.520081,3379.037109 504.520081,3369.070068 504.520081,3358.079102 
	C551.059387,3358.079102 596.877136,3358.079102 642.733398,3358.079102 
	C642.733398,3349.589111 642.733398,3342.162842 642.733398,3334.076660 
	C596.381714,3334.076660 550.792236,3334.076660 505.181763,3334.076660 
	C505.181763,3297.279053 505.181763,3261.161377 505.181763,3224.267578 
	C555.032898,3224.267578 604.229675,3224.267578 653.790527,3224.267578 
	C653.790527,3216.005371 653.790527,3208.530029 653.790527,3200.811523 
	C595.236023,3200.811523 537.154602,3200.811523 478.958130,3200.811523 
	C478.958130,3300.290283 478.958130,3399.086670 478.958130,3498.191895 
	C539.050720,3498.191895 598.583618,3498.191895 658.248291,3498.191895 
	C658.248291,3490.028320 658.248291,3482.337646 658.248291,3473.814941 
	C606.561890,3473.814941 555.726318,3473.814941 504.520020,3473.814941 
	C504.520020,3445.644775 504.520020,3418.323730 504.520081,3389.004395 
M165.805527,3200.431152 
	C165.026169,3208.106201 164.246811,3215.781494 163.335968,3224.751465 
	C198.679947,3224.751465 232.436615,3224.751465 266.975586,3224.751465 
	C266.975586,3316.471191 266.975586,3407.007568 266.975586,3497.958740 
	C275.852509,3497.958740 283.912292,3497.958740 292.665070,3497.958740 
	C292.665070,3406.791992 292.665070,3316.279541 292.665070,3224.641113 
	C327.380615,3224.571045 361.430634,3224.662598 395.200745,3224.586914 
	C395.200745,3215.606445 395.200745,3208.139404 395.200745,3200.173340 
	C318.892212,3200.173340 243.287247,3200.173340 165.805527,3200.431152 
M2321.000000,3473.963623 
	C2288.380127,3473.880615 2255.760498,3473.799316 2223.140625,3473.690430 
	C2222.871582,3473.689697 2222.587646,3473.339600 2222.338867,3473.120361 
	C2222.103271,3472.912598 2221.904785,3472.662598 2220.948730,3471.633545 
	C2220.948730,3381.959229 2220.948730,3291.485352 2220.948730,3200.692871 
	C2212.100098,3200.692871 2203.996826,3200.692871 2195.864014,3200.692871 
	C2195.864014,3300.256592 2195.864014,3399.254883 2195.864014,3498.067871 
	C2255.057373,3498.067871 2313.500977,3498.067871 2372.093994,3498.067871 
	C2372.093994,3489.910645 2372.093994,3482.336670 2372.093994,3473.963623 
	C2355.491943,3473.963623 2339.246094,3473.963623 2321.000000,3473.963623 
M3207.975586,3458.999512 
	C3207.975586,3471.912598 3207.975586,3484.825684 3207.975586,3498.633057 
	C3212.783691,3498.633057 3216.701416,3498.633057 3220.619141,3498.633057 
	C3224.848633,3498.633057 3229.077881,3498.633057 3233.581543,3498.633057 
	C3233.581543,3398.746826 3233.581543,3299.928467 3233.581543,3200.693848 
	C3224.994873,3200.693848 3216.881592,3200.693848 3207.975586,3200.693848 
	C3207.975586,3286.499268 3207.975586,3371.749756 3207.975586,3458.999512 
z"/>
<path fill="#010101" opacity="1.000000" stroke="none" 
	d="
M2822.176758,2914.606934 
	C2810.004883,2916.722168 2803.411133,2911.562256 2796.736084,2902.555908 
	C2708.065186,2782.912109 2618.943359,2663.603027 2529.922119,2544.219238 
	C2527.999512,2541.640869 2525.934082,2539.169434 2522.586914,2534.947754 
	C2522.586914,2662.479980 2522.586914,2787.878174 2522.586914,2913.940430 
	C2451.299072,2913.940430 2380.852295,2913.940430 2309.766113,2913.940430 
	C2309.766113,2665.533691 2309.766113,2417.117920 2309.766113,2168.429688 
	C2368.218018,2168.429688 2426.179688,2168.429688 2485.235840,2168.429688 
	C2578.754639,2293.231934 2672.683105,2418.581055 2766.611816,2543.930176 
	C2767.238037,2543.722900 2767.864014,2543.515381 2768.490234,2543.307861 
	C2768.490234,2418.588867 2768.490234,2293.869629 2768.490234,2168.656982 
	C2839.713623,2168.656982 2909.892090,2168.656982 2980.710449,2168.656982 
	C2980.710449,2416.939453 2980.710449,2665.072754 2980.710449,2914.606934 
	C2928.154541,2914.606934 2875.651611,2914.606934 2822.176758,2914.606934 
z"/>
<path fill="#010101" opacity="1.000000" stroke="none" 
	d="
M1854.211426,2848.213623 
	C1804.619995,2885.495605 1749.709595,2909.246094 1689.714966,2921.023682 
	C1609.859863,2936.699951 1530.543091,2934.267822 1452.660034,2909.863281 
	C1360.678711,2881.040771 1288.097778,2826.620850 1238.885986,2742.877197 
	C1211.333252,2695.990479 1195.559570,2645.101562 1189.770020,2591.090576 
	C1186.029541,2556.195068 1185.177246,2521.295410 1189.880249,2486.395752 
	C1204.602173,2377.152100 1254.560791,2288.708008 1345.348267,2224.851562 
	C1397.493408,2188.174561 1455.971069,2167.204590 1518.817505,2157.657227 
	C1558.234985,2151.669189 1597.752197,2150.215088 1637.415771,2153.901123 
	C1728.857300,2162.398438 1811.119141,2193.148682 1879.672852,2255.827148 
	C1934.058350,2305.551514 1969.587402,2366.816406 1986.789795,2438.316895 
	C2007.848022,2525.843750 2004.039551,2612.132080 1970.263306,2696.206787 
	C1945.734131,2757.264160 1906.883179,2807.629395 1854.211426,2848.213623 
M1518.410034,2365.298096 
	C1471.571411,2383.782471 1438.715698,2416.560059 1420.056030,2463.135742 
	C1401.939941,2508.354736 1400.740112,2554.853760 1414.081421,2601.316406 
	C1430.967041,2660.121582 1468.722168,2700.093750 1526.727539,2720.311035 
	C1560.495850,2732.080566 1595.246582,2734.019531 1630.220825,2727.834473 
	C1690.573120,2717.161621 1736.227295,2685.562256 1762.302612,2629.308838 
	C1786.554321,2576.989990 1787.429443,2522.777832 1768.466309,2468.779541 
	C1748.922729,2413.128174 1709.780518,2376.791260 1653.259277,2360.096680 
	C1608.468994,2346.867188 1563.795654,2348.618652 1518.410034,2365.298096 
z"/>
<path fill="#010101" opacity="1.000000" stroke="none" 
	d="
M557.691101,2929.854004 
	C503.425812,2932.350098 450.725861,2928.361572 399.662506,2912.156006 
	C266.680786,2869.953125 183.089996,2780.526123 150.358139,2645.227783 
	C129.859375,2560.495117 132.622177,2475.626953 162.957687,2393.341553 
	C206.819138,2274.367432 291.791504,2199.396240 413.765228,2166.290527 
	C470.415222,2150.915039 528.073486,2148.483398 586.237915,2155.777588 
	C649.022522,2163.650879 707.386230,2183.828125 759.998230,2219.219727 
	C832.666199,2268.102539 880.860107,2335.420166 907.586548,2418.429199 
	C911.558228,2430.764404 914.479797,2443.438965 917.828918,2455.972168 
	C918.252686,2457.558105 918.320740,2459.239014 918.660034,2461.623535 
	C846.261597,2461.623535 774.198547,2461.623535 701.587891,2461.623535 
	C700.924316,2460.115967 700.085266,2458.353027 699.361145,2456.543945 
	C680.484070,2409.387207 646.453491,2378.119385 598.718506,2361.865967 
	C555.941650,2347.300537 512.692200,2347.395264 470.330292,2362.857666 
	C417.256348,2382.229736 383.161926,2420.741211 366.776611,2474.187500 
	C351.680756,2523.427734 352.676270,2573.177979 371.563873,2621.208496 
	C398.152130,2688.822021 448.943512,2724.895996 521.378113,2730.401611 
	C550.026001,2732.578857 577.835266,2728.752930 604.640320,2718.237549 
	C649.030457,2700.824219 680.505981,2669.895020 700.270447,2626.739258 
	C701.793640,2623.413330 703.235535,2620.050049 704.862976,2616.370117 
	C777.387573,2616.370117 849.961487,2616.370117 923.097412,2616.370117 
	C920.509216,2634.890137 916.160706,2652.561523 910.453857,2669.864502 
	C870.528503,2790.916992 788.595459,2869.707275 668.365051,2909.637695 
	C632.783264,2921.455078 595.992920,2927.266357 557.691101,2929.854004 
z"/>
<path fill="#010101" opacity="1.000000" stroke="none" 
	d="
M3546.233154,2439.775635 
	C3546.233154,2443.676270 3546.233154,2446.599365 3546.233154,2450.560059 
	C3636.524170,2450.560059 3725.977051,2450.560059 3815.843994,2450.560059 
	C3815.843994,2508.510010 3815.843994,2565.415283 3815.843994,2623.293457 
	C3726.365479,2623.293457 3636.890869,2623.293457 3546.826904,2623.293457 
	C3546.826904,2662.044189 3546.826904,2699.826172 3546.826904,2738.570801 
	C3649.956543,2738.570801 3752.770020,2738.570801 3856.092285,2738.570801 
	C3856.092285,2797.403320 3856.092285,2855.279785 3856.092285,2913.882324 
	C3682.178955,2913.882324 3508.093262,2913.882324 3333.553711,2913.882324 
	C3333.553711,2665.605225 3333.553711,2417.421875 3333.553711,2168.697998 
	C3503.774170,2168.697998 3673.606689,2168.697998 3843.480957,2168.697998 
	C3845.450928,2175.334717 3846.089600,2327.430420 3844.054443,2341.512451 
	C3745.322266,2341.512451 3646.475830,2341.512451 3546.233154,2341.512451 
	C3546.233154,2374.429199 3546.233154,2406.613770 3546.233154,2439.775635 
z"/>
<path fill="#040404" opacity="1.000000" stroke="none" 
	d="
M3462.000000,3074.248779 
	C3586.892090,3074.248779 3710.783936,3074.248779 3835.149902,3074.248779 
	C3835.149902,3085.146484 3835.149902,3095.008057 3835.149902,3105.587891 
	C2614.326660,3105.587891 1393.580933,3105.587891 172.257278,3105.587891 
	C172.257278,3095.609131 172.257278,3085.473633 172.257278,3074.248779 
	C1268.605957,3074.248779 2364.802979,3074.248779 3462.000000,3074.248779 
z"/>
<path fill="#050505" opacity="1.000000" stroke="none" 
	d="
M3086.790527,3373.469727 
	C3087.134277,3370.930908 3087.284668,3369.318848 3087.525146,3366.742676 
	C3043.546875,3366.742676 3000.105713,3366.742676 2956.104004,3366.742676 
	C2956.104004,3358.030762 2956.104004,3350.234131 2956.104004,3342.117676 
	C3008.973877,3342.117676 3061.569824,3342.117676 3115.629883,3342.117676 
	C3115.107666,3350.464355 3114.911377,3358.638184 3114.033447,3366.738037 
	C3110.814941,3396.432861 3101.352051,3423.920654 3083.180908,3447.840088 
	C3056.824219,3482.533447 3021.073242,3500.165283 2978.100342,3503.779541 
	C2952.501465,3505.932373 2927.524658,3502.724854 2903.684814,3492.934326 
	C2867.015869,3477.874756 2840.761719,3451.751465 2826.309082,3415.048340 
	C2807.900391,3368.298584 2807.937988,3321.062988 2829.976562,3275.474121 
	C2852.753418,3228.356934 2891.712646,3202.594727 2943.315918,3195.904053 
	C2982.420410,3190.834229 3018.931641,3198.461670 3051.937012,3220.373779 
	C3077.149170,3237.112305 3094.574463,3260.199463 3104.969727,3288.596191 
	C3105.293213,3289.479980 3105.250732,3290.498047 3105.430420,3291.836914 
	C3096.621582,3291.836914 3088.026367,3291.836914 3078.666016,3291.836914 
	C3077.436279,3289.728760 3075.867432,3287.274414 3074.524170,3284.701904 
	C3054.952881,3247.216064 3023.765137,3226.859375 2982.123535,3221.638672 
	C2956.712158,3218.452881 2932.177979,3221.637451 2908.976562,3232.314453 
	C2877.207520,3246.934326 2856.599365,3271.796387 2846.475342,3304.998047 
	C2836.656250,3337.198975 2837.231689,3369.683594 2849.240234,3401.108887 
	C2867.337891,3448.469727 2903.250488,3473.169678 2953.069824,3477.732910 
	C2981.229736,3480.312256 3008.317871,3475.365479 3032.639648,3460.184082 
	C3064.352051,3440.389893 3081.318848,3410.986572 3086.790527,3373.469727 
z"/>
<path fill="#060606" opacity="1.000000" stroke="none" 
	d="
M2587.957520,3194.337402 
	C2617.613037,3195.304443 2645.132812,3200.888428 2669.985840,3215.991699 
	C2708.539307,3239.420654 2730.410156,3274.243652 2737.851318,3318.229980 
	C2743.097900,3349.243896 2741.651855,3379.979248 2730.309326,3409.710693 
	C2710.391602,3461.921143 2671.815186,3491.840088 2617.633789,3501.676758 
	C2585.313965,3507.544678 2553.290283,3505.107422 2522.552002,3492.282959 
	C2481.653320,3475.219482 2454.023682,3445.555420 2440.984619,3403.375732 
	C2427.300781,3359.108887 2428.667725,3315.123779 2450.005615,3273.272461 
	C2471.374023,3231.361084 2506.318604,3206.767090 2552.287354,3198.003906 
	C2563.677002,3195.832520 2575.417480,3195.499268 2587.957520,3194.337402 
M2702.004639,3289.269287 
	C2688.333740,3260.078125 2666.276611,3239.761230 2636.062500,3228.951416 
	C2604.683105,3217.724609 2572.792725,3217.338623 2541.059082,3227.841064 
	C2507.204102,3239.045654 2483.168457,3261.230957 2469.559326,3294.183350 
	C2456.349854,3326.167725 2455.825195,3359.108887 2465.299072,3391.990234 
	C2475.672852,3427.995850 2498.427490,3453.697754 2533.227539,3468.174805 
	C2559.172119,3478.968018 2586.252197,3481.028076 2613.575439,3475.829834 
	C2662.819092,3466.461914 2695.701660,3437.729004 2709.368896,3389.288818 
	C2718.764404,3355.989258 2716.389893,3322.748535 2702.004639,3289.269287 
z"/>
<path fill="#060606" opacity="1.000000" stroke="none" 
	d="
M1814.547607,3433.494141 
	C1788.411499,3383.968994 1785.228760,3333.352539 1806.287720,3282.521973 
	C1825.989014,3234.968018 1863.201050,3207.502441 1913.563477,3197.749268 
	C1947.114746,3191.252197 1980.164062,3193.519775 2011.655151,3206.731689 
	C2059.989746,3227.010498 2087.962402,3264.415039 2097.766602,3315.365479 
	C2103.645752,3345.919189 2102.547852,3376.420410 2092.056641,3406.054199 
	C2072.989502,3459.911621 2034.272339,3491.173584 1978.874390,3501.557373 
	C1946.246460,3507.673340 1913.867554,3505.157959 1882.767090,3492.223877 
	C1853.838501,3480.193604 1831.062256,3461.051270 1814.547607,3433.494141 
M2072.333984,3321.135986 
	C2063.816650,3276.832520 2039.489624,3245.142578 1996.878052,3229.184570 
	C1965.615723,3217.477051 1933.586182,3217.247559 1901.824951,3227.739746 
	C1865.302490,3239.804932 1840.347046,3264.188232 1827.609375,3300.468994 
	C1815.803101,3334.097412 1816.457153,3368.082031 1828.782349,3401.291016 
	C1841.863037,3436.536133 1867.183105,3460.140869 1902.928345,3471.636963 
	C1930.856567,3480.618652 1959.322266,3480.759033 1987.611572,3472.676514 
	C2020.737305,3463.211670 2045.536255,3443.235352 2061.049072,3412.424561 
	C2075.345459,3384.030029 2077.789307,3353.875977 2072.333984,3321.135986 
z"/>
<path fill="#070707" opacity="1.000000" stroke="none" 
	d="
M1493.449219,3461.996826 
	C1493.449219,3474.571777 1493.449219,3486.147461 1493.449219,3498.175781 
	C1484.669556,3498.175781 1476.777100,3498.175781 1468.295044,3498.175781 
	C1468.295044,3399.212402 1468.295044,3300.381348 1468.295044,3200.166504 
	C1475.246704,3200.166504 1482.497437,3199.599121 1489.571777,3200.467773 
	C1492.121460,3200.780518 1494.668823,3204.239502 1496.502563,3206.778809 
	C1516.979736,3235.133545 1537.321655,3263.586182 1557.690430,3292.019043 
	C1593.772217,3342.386230 1629.844360,3392.760742 1665.935669,3443.121094 
	C1667.806030,3445.730713 1669.819336,3448.237549 1673.378662,3450.380371 
	C1673.378662,3367.339844 1673.378662,3284.299561 1673.378662,3200.695312 
	C1682.290527,3200.695312 1690.157715,3200.695312 1698.763306,3200.695312 
	C1698.763306,3299.405273 1698.763306,3398.234863 1698.763306,3498.553223 
	C1691.691895,3498.553223 1684.143188,3499.116455 1676.765015,3498.241699 
	C1674.248779,3497.943359 1671.782349,3494.301270 1669.934814,3491.726807 
	C1643.133057,3454.380615 1616.445557,3416.952393 1589.720459,3379.551270 
	C1560.477417,3338.626465 1531.224731,3297.708496 1501.971069,3256.791260 
	C1499.859009,3253.837402 1497.702637,3250.915039 1495.620117,3248.051270 
	C1495.024902,3248.246582 1494.684326,3248.307861 1494.398682,3248.467285 
	C1494.154053,3248.604004 1493.788696,3248.852783 1493.788330,3249.052246 
	C1493.657715,3319.700684 1493.553833,3390.349365 1493.449219,3461.996826 
z"/>
<path fill="#060606" opacity="1.000000" stroke="none" 
	d="
M1016.379517,3398.298340 
	C1022.248901,3398.298340 1027.225952,3398.298340 1033.194580,3398.298340 
	C1032.310791,3401.697754 1031.831543,3404.521240 1030.853027,3407.159912 
	C1012.512207,3456.612549 977.114014,3487.169678 926.345337,3499.671631 
	C892.508972,3508.004395 858.734924,3506.403809 826.380737,3492.831787 
	C775.342529,3471.421631 747.076904,3431.830811 738.126526,3378.005127 
	C733.187012,3348.299316 734.883972,3318.824707 745.745483,3290.444580 
	C767.001221,3234.904053 807.770264,3203.853760 866.340820,3195.925049 
	C900.681152,3191.276367 933.445557,3196.753906 963.840942,3213.690674 
	C996.707520,3232.004150 1018.503113,3259.567139 1030.748169,3296.178467 
	C1021.714722,3296.178467 1013.317749,3296.178467 1004.011719,3296.178467 
	C1003.395996,3295.006592 1002.226196,3293.051514 1001.304321,3290.985596 
	C983.497498,3251.084229 951.966797,3229.204834 909.673584,3222.230225 
	C881.706787,3217.618164 854.443726,3221.017578 828.946045,3233.848877 
	C791.612671,3252.636475 771.273376,3283.964111 764.180786,3324.442139 
	C760.086365,3347.809814 761.740540,3371.045166 768.809570,3393.599609 
	C784.073608,3442.300293 823.028320,3473.094238 874.567261,3477.711426 
	C901.649048,3480.137451 927.656067,3475.696533 951.878174,3462.652100 
	C974.979431,3450.211914 991.988953,3432.165039 1002.519165,3408.083496 
	C1003.846985,3405.046387 1005.154114,3402.000244 1006.756714,3398.298340 
	C1009.620361,3398.298340 1012.553772,3398.298340 1016.379517,3398.298340 
z"/>
<path fill="#060606" opacity="1.000000" stroke="none" 
	d="
M3620.868896,3455.045654 
	C3613.152588,3441.044434 3609.377930,3426.711914 3608.786865,3410.723389 
	C3617.048340,3410.723389 3625.176758,3410.723389 3633.744385,3410.723389 
	C3634.074707,3412.417725 3634.510986,3414.316650 3634.810059,3416.237305 
	C3639.583008,3446.872314 3657.776367,3465.804932 3686.822754,3474.449707 
	C3713.430908,3482.369385 3740.200684,3481.680664 3766.274658,3472.018066 
	C3783.696289,3465.561523 3796.719727,3454.023193 3800.803711,3434.968018 
	C3805.006104,3415.360352 3799.844482,3398.702637 3783.608887,3386.157959 
	C3772.374023,3377.477051 3759.501221,3371.960205 3746.025635,3368.088379 
	C3726.215088,3362.396973 3705.998779,3358.044434 3686.376465,3351.798340 
	C3673.790527,3347.791992 3661.425537,3342.362061 3649.903320,3335.892334 
	C3624.422363,3321.584473 3611.964111,3299.475830 3613.421631,3269.855957 
	C3614.831543,3241.200439 3629.031494,3220.835449 3653.918457,3207.826660 
	C3676.054443,3196.256348 3700.097900,3193.206787 3724.736328,3194.623779 
	C3741.428955,3195.583496 3757.730713,3198.553711 3773.125732,3205.647217 
	C3801.129639,3218.550049 3816.799561,3240.600098 3821.970703,3270.586182 
	C3822.649658,3274.522217 3823.015381,3278.513184 3823.465820,3282.485596 
	C3823.538086,3283.120850 3823.289062,3283.792480 3823.091797,3285.075439 
	C3815.016602,3285.075439 3806.838623,3285.075439 3798.463135,3285.075439 
	C3797.702148,3281.113281 3796.944824,3277.216553 3796.205811,3273.316650 
	C3791.869385,3250.430176 3778.471680,3234.567627 3757.059326,3226.535400 
	C3729.588135,3216.229980 3701.447998,3216.520508 3673.888672,3226.468994 
	C3650.374512,3234.957275 3638.427246,3253.951416 3639.743652,3278.195068 
	C3640.481201,3291.781006 3646.943848,3302.186768 3657.495117,3310.305908 
	C3670.119873,3320.020508 3684.721924,3325.610107 3699.833008,3329.864014 
	C3715.198975,3334.189453 3730.773926,3337.770264 3746.156006,3342.041504 
	C3763.205322,3346.775879 3779.407471,3353.479248 3794.709229,3362.585449 
	C3843.852295,3391.830322 3838.454102,3465.247314 3787.421387,3490.253662 
	C3773.491943,3497.079102 3758.931885,3501.526855 3743.589111,3503.075928 
	C3717.460693,3505.713867 3691.712158,3504.383789 3667.000000,3494.240234 
	C3647.600342,3486.277344 3632.028564,3473.838379 3620.868896,3455.045654 
z"/>
<path fill="#050505" opacity="1.000000" stroke="none" 
	d="
M1160.086670,3359.053223 
	C1157.113525,3359.164551 1155.131470,3359.275391 1152.354492,3359.430908 
	C1152.354492,3405.433594 1152.354492,3451.309570 1152.354492,3497.910156 
	C1143.452637,3497.910156 1135.334839,3497.910156 1126.539795,3497.910156 
	C1126.539795,3399.266602 1126.539795,3300.462646 1126.539795,3200.895996 
	C1134.316650,3200.895996 1142.439331,3200.895996 1151.698608,3200.895996 
	C1151.698608,3244.763672 1151.698608,3288.865234 1151.698608,3333.460938 
	C1210.318604,3333.460938 1267.817749,3333.460938 1326.489990,3333.460938 
	C1326.489990,3289.270752 1326.489990,3245.174805 1326.489990,3200.615479 
	C1335.534058,3200.615479 1343.422119,3200.615479 1352.044922,3200.615479 
	C1352.044922,3299.625244 1352.044922,3398.685059 1352.044922,3498.638672 
	C1345.667114,3498.638672 1339.412231,3498.681885 1333.158691,3498.612793 
	C1331.226440,3498.591553 1329.297729,3498.264404 1326.568237,3498.000000 
	C1326.568237,3451.759766 1326.568237,3405.917236 1326.568237,3359.052979 
	C1270.844727,3359.052979 1215.961304,3359.052979 1160.086670,3359.053223 
z"/>
<path fill="#070707" opacity="1.000000" stroke="none" 
	d="
M3374.787842,3328.086914 
	C3374.932861,3331.327148 3374.268066,3334.074707 3377.841553,3334.201172 
	C3380.504150,3334.295410 3383.171143,3334.289551 3385.836182,3334.289795 
	C3424.821777,3334.294678 3463.807617,3334.292969 3502.793213,3334.292969 
	C3506.059570,3334.292969 3509.325684,3334.293213 3513.125244,3334.293213 
	C3513.125244,3342.302246 3513.125244,3349.482910 3513.125244,3358.167969 
	C3467.506104,3358.262695 3421.749756,3358.159424 3375.396973,3358.227539 
	C3375.396973,3397.106445 3375.396973,3435.219971 3375.396973,3474.154297 
	C3426.379395,3474.154297 3477.237549,3474.154297 3528.748535,3474.154297 
	C3528.748535,3482.456543 3528.748535,3489.959717 3528.748535,3498.066650 
	C3469.048584,3498.066650 3409.246338,3498.066650 3349.093262,3498.066650 
	C3349.093262,3398.824219 3349.093262,3300.020020 3349.093262,3200.671387 
	C3407.375488,3200.671387 3465.189941,3200.671387 3523.702148,3200.671387 
	C3523.702148,3208.090576 3523.702148,3215.566650 3523.702148,3224.198975 
	C3474.614502,3224.198975 3425.184326,3224.198975 3374.785400,3224.198975 
	C3374.785400,3259.243164 3374.785400,3293.158203 3374.787842,3328.086914 
z"/>
<path fill="#060606" opacity="1.000000" stroke="none" 
	d="
M504.520050,3390.003418 
	C504.520020,3418.323730 504.520020,3445.644775 504.520020,3473.814941 
	C555.726318,3473.814941 606.561890,3473.814941 658.248291,3473.814941 
	C658.248291,3482.337646 658.248291,3490.028320 658.248291,3498.191895 
	C598.583618,3498.191895 539.050720,3498.191895 478.958130,3498.191895 
	C478.958130,3399.086670 478.958130,3300.290283 478.958130,3200.811523 
	C537.154602,3200.811523 595.236023,3200.811523 653.790527,3200.811523 
	C653.790527,3208.530029 653.790527,3216.005371 653.790527,3224.267578 
	C604.229675,3224.267578 555.032898,3224.267578 505.181763,3224.267578 
	C505.181763,3261.161377 505.181763,3297.279053 505.181763,3334.076660 
	C550.792236,3334.076660 596.381714,3334.076660 642.733398,3334.076660 
	C642.733398,3342.162842 642.733398,3349.589111 642.733398,3358.079102 
	C596.877136,3358.079102 551.059387,3358.079102 504.520081,3358.079102 
	C504.520081,3369.070068 504.520081,3379.037109 504.520050,3390.003418 
z"/>
<path fill="#020202" opacity="1.000000" stroke="none" 
	d="
M166.743912,3200.302246 
	C243.287247,3200.173340 318.892212,3200.173340 395.200745,3200.173340 
	C395.200745,3208.139404 395.200745,3215.606445 395.200745,3224.586914 
	C361.430634,3224.662598 327.380615,3224.571045 292.665070,3224.641113 
	C292.665070,3316.279541 292.665070,3406.791992 292.665070,3497.958740 
	C283.912292,3497.958740 275.852509,3497.958740 266.975586,3497.958740 
	C266.975586,3407.007568 266.975586,3316.471191 266.975586,3224.751465 
	C232.436615,3224.751465 198.679947,3224.751465 163.335968,3224.751465 
	C164.246811,3215.781494 165.026169,3208.106201 166.743912,3200.302246 
z"/>
<path fill="#060606" opacity="1.000000" stroke="none" 
	d="
M2322.000000,3473.963623 
	C2339.246094,3473.963623 2355.491943,3473.963623 2372.093994,3473.963623 
	C2372.093994,3482.336670 2372.093994,3489.910645 2372.093994,3498.067871 
	C2313.500977,3498.067871 2255.057373,3498.067871 2195.864014,3498.067871 
	C2195.864014,3399.254883 2195.864014,3300.256592 2195.864014,3200.692871 
	C2203.996826,3200.692871 2212.100098,3200.692871 2220.948730,3200.692871 
	C2220.948730,3291.485352 2220.948730,3381.959229 2220.948730,3471.633545 
	C2221.904785,3472.662598 2222.103271,3472.912598 2222.338867,3473.120361 
	C2222.587646,3473.339600 2222.871582,3473.689697 2223.140625,3473.690430 
	C2255.760498,3473.799316 2288.380127,3473.880615 2322.000000,3473.963623 
z"/>
<path fill="#050505" opacity="1.000000" stroke="none" 
	d="
M3207.975586,3457.999756 
	C3207.975586,3371.749756 3207.975586,3286.499268 3207.975586,3200.693848 
	C3216.881592,3200.693848 3224.994873,3200.693848 3233.581543,3200.693848 
	C3233.581543,3299.928467 3233.581543,3398.746826 3233.581543,3498.633057 
	C3229.077881,3498.633057 3224.848633,3498.633057 3220.619141,3498.633057 
	C3216.701416,3498.633057 3212.783691,3498.633057 3207.975586,3498.633057 
	C3207.975586,3484.825684 3207.975586,3471.912598 3207.975586,3457.999756 
z"/>
<path fill="#FEFEFE" opacity="1.000000" stroke="none" 
	d="
M1519.104248,2364.954590 
	C1563.795654,2348.618652 1608.468994,2346.867188 1653.259277,2360.096680 
	C1709.780518,2376.791260 1748.922729,2413.128174 1768.466309,2468.779541 
	C1787.429443,2522.777832 1786.554321,2576.989990 1762.302612,2629.308838 
	C1736.227295,2685.562256 1690.573120,2717.161621 1630.220825,2727.834473 
	C1595.246582,2734.019531 1560.495850,2732.080566 1526.727539,2720.311035 
	C1468.722168,2700.093750 1430.967041,2660.121582 1414.081421,2601.316406 
	C1400.740112,2554.853760 1401.939941,2508.354736 1420.056030,2463.135742 
	C1438.715698,2416.560059 1471.571411,2383.782471 1519.104248,2364.954590 
z"/>
<path fill="#FEFEFE" opacity="1.000000" stroke="none" 
	d="
M2702.304199,3289.966553 
	C2716.389893,3322.748535 2718.764404,3355.989258 2709.368896,3389.288818 
	C2695.701660,3437.729004 2662.819092,3466.461914 2613.575439,3475.829834 
	C2586.252197,3481.028076 2559.172119,3478.968018 2533.227539,3468.174805 
	C2498.427490,3453.697754 2475.672852,3427.995850 2465.299072,3391.990234 
	C2455.825195,3359.108887 2456.349854,3326.167725 2469.559326,3294.183350 
	C2483.168457,3261.230957 2507.204102,3239.045654 2541.059082,3227.841064 
	C2572.792725,3217.338623 2604.683105,3217.724609 2636.062500,3228.951416 
	C2666.276611,3239.761230 2688.333740,3260.078125 2702.304199,3289.966553 
z"/>
<path fill="#FEFEFE" opacity="1.000000" stroke="none" 
	d="
M2072.485840,3321.993164 
	C2077.789307,3353.875977 2075.345459,3384.030029 2061.049072,3412.424561 
	C2045.536255,3443.235352 2020.737305,3463.211670 1987.611572,3472.676514 
	C1959.322266,3480.759033 1930.856567,3480.618652 1902.928345,3471.636963 
	C1867.183105,3460.140869 1841.863037,3436.536133 1828.782349,3401.291016 
	C1816.457153,3368.082031 1815.803101,3334.097412 1827.609375,3300.468994 
	C1840.347046,3264.188232 1865.302490,3239.804932 1901.824951,3227.739746 
	C1933.586182,3217.247559 1965.615723,3217.477051 1996.878052,3229.184570 
	C2039.489624,3245.142578 2063.816650,3276.832520 2072.485840,3321.993164 
z"/>
</svg>